<svg viewBox="0 -0.5 30 30" shape-rendering="crispEdges">
<path stroke="#2d40e5" d="M0 0h1" />
<path stroke="#293de5" d="M1 0h1" />
<path stroke="#236de5" d="M2 0h1" />
<path stroke="#245de5" d="M3 0h1M11 0h11M23 0h3M2 1h17M25 1h2M6 2h20M3 3h7M12 3h1M15 3h1M19 3h3M23 3h1M26 3h2M0 4h7M10 4h2M17 4h2M22 4h4M27 4h1M0 5h1M3 5h3M10 5h1M18 5h1M22 5h3M26 5h3M2 6h5M25 6h2M29 6h1M1 7h1M4 7h3M24 7h2M27 7h3M0 8h7M22 8h2M28 8h2M0 9h7M28 9h1M1 10h6M26 10h2M1 11h4M6 11h1M23 11h4M1 12h3M22 12h1M25 12h5M2 13h2M25 13h5M3 14h1M24 14h1M2 15h3M2 16h5M5 17h2M6 19h2" />
<path stroke="#2347e5" d="M4 0h1" />
<path stroke="#235ae5" d="M5 0h1" />
<path stroke="#2261e5" d="M6 0h1" />
<path stroke="#2378e5" d="M7 0h1" />
<path stroke="#3d23e5" d="M8 0h1" />
<path stroke="#236be5" d="M9 0h1M27 2h1" />
<path stroke="#2b79e5" d="M10 0h1M19 1h6M27 1h2M3 2h3M26 2h1M28 2h1M2 3h1M11 3h1M17 3h2M22 3h1M24 3h2M28 3h1M26 4h1M28 4h1M2 5h1M17 5h1M25 5h1M1 6h1M22 6h3M27 6h2M0 7h1M2 7h2M22 7h2M26 7h1M7 8h1M21 8h1M24 8h4M22 9h3M27 9h1M29 9h1M22 10h4M28 10h2M0 11h1M22 11h1M27 11h1M0 13h1M1 14h2M5 15h1M23 15h7M28 16h2M1 17h4M22 17h8M3 18h4M23 18h5M24 19h1" />
<path stroke="#382ae5" d="M22 0h1" />
<path stroke="#2360e5" d="M26 0h1" />
<path stroke="#2541e5" d="M27 0h1" />
<path stroke="#255fe5" d="M28 0h1" />
<path stroke="#2129e5" d="M29 0h1" />
<path stroke="#2345e5" d="M0 1h1M2 2h1" />
<path stroke="#234ae5" d="M1 1h1" />
<path stroke="#215ae5" d="M29 1h1" />
<path stroke="#2a3ae5" d="M0 2h1" />
<path stroke="#233ce5" d="M1 2h1" />
<path stroke="#217be5" d="M29 2h1" />
<path stroke="#2529e5" d="M0 3h1" />
<path stroke="#2355e5" d="M1 3h1" />
<path stroke="#322de5" d="M10 3h1" />
<path stroke="#e4b8bc" d="M13 3h2M15 4h2M11 5h2M16 5h1M13 6h1M16 6h2M14 7h1M17 7h1M12 8h1M14 8h1M13 9h2" />
<path stroke="#2657e5" d="M16 3h1" />
<path stroke="#206de5" d="M29 3h1" />
<path stroke="#564b3b" d="M7 4h3M19 4h3" />
<path stroke="#e3c3c6" d="M12 4h3M11 6h1M11 7h1M11 8h1M5 14h1M22 14h1M6 15h1M21 15h1M7 16h1M21 16h1M20 20h1M16 22h1" />
<path stroke="#1f6ee4" d="M29 4h1" />
<path stroke="#3f2ae5" d="M1 5h1" />
<path stroke="#3733e5" d="M6 5h1" />
<path stroke="#353331" d="M7 5h1M21 5h1M7 6h1M21 6h1" />
<path stroke="#eeced1" d="M8 5h2M19 5h2M10 10h1M17 10h1M10 11h1M17 11h1M10 12h1M17 12h1M18 20h2M9 21h5M16 21h4M9 22h7M17 22h2" />
<path stroke="#f9d9dc" d="M13 5h1M15 5h1M10 6h1M12 6h1M18 6h1M9 7h2M16 7h1M18 7h2M8 8h3M13 8h1M16 8h5M8 9h5M15 9h6M9 10h1M11 10h1M13 10h2M16 10h1M18 10h3M5 11h1M7 11h1M9 11h1M11 11h1M13 11h2M16 11h1M18 11h4M5 12h5M11 12h1M13 12h2M16 12h1M18 12h4M23 12h1M5 13h19M6 14h1M8 14h2M12 14h1M15 14h1M18 14h3M9 15h4M15 15h5M9 16h10M7 17h15M8 18h1M11 18h7M21 18h1M9 19h1M12 19h6M19 19h3M9 20h4M17 20h1M14 21h2M10 24h1M17 24h1" />
<path stroke="#edcfd2" d="M14 5h1M15 6h1M12 7h1M15 7h1M15 8h1" />
<path stroke="#1e59e4" d="M29 5h1" />
<path stroke="#235be5" d="M0 6h1" />
<path stroke="#e6bec2" d="M8 6h2M19 6h2M7 7h2M20 7h1" />
<path stroke="#ecc5c8" d="M14 6h1M13 7h1" />
<path stroke="#2856e3" d="M21 7h1" />
<path stroke="#e2b7bb" d="M7 9h1M21 9h1M7 10h1M21 10h1M4 13h1M24 13h1M23 14h1M22 15h1M8 19h1M8 20h1M8 21h1M8 22h1M9 23h1M18 23h1M9 24h1M18 24h1" />
<path stroke="#2661e5" d="M25 9h1" />
<path stroke="#2f64dc" d="M26 9h1" />
<path stroke="#2e5be2" d="M0 10h1" />
<path stroke="#f3d8db" d="M8 10h1M8 11h1" />
<path stroke="#faf1f4" d="M12 10h1M15 10h1M14 14h1" />
<path stroke="#1d1c1c" d="M12 11h1M15 11h1" />
<path stroke="#2562e2" d="M28 11h1" />
<path stroke="#1d55e4" d="M29 11h1" />
<path stroke="#2730e2" d="M0 12h1" />
<path stroke="#cfcbcb" d="M4 12h1M24 12h1" />
<path stroke="#508af4" d="M12 12h1M15 12h1" />
<path stroke="#2b42e3" d="M1 13h1" />
<path stroke="#2741e3" d="M0 14h1" />
<path stroke="#2962e2" d="M4 14h1" />
<path stroke="#f4d4d7" d="M7 14h1M21 14h1M7 15h2M20 15h1M8 16h1M19 16h2M9 18h2M18 18h3M10 19h2M18 19h1M13 20h4M10 23h2M16 23h2" />
<path stroke="#fc9fbc" d="M10 14h2M16 14h2M13 15h2" />
<path stroke="#d592a7" d="M13 14h1" />
<path stroke="#2557e5" d="M25 14h1" />
<path stroke="#2b55df" d="M26 14h1" />
<path stroke="#2d71e1" d="M27 14h1" />
<path stroke="#2443e3" d="M28 14h1" />
<path stroke="#1f44e5" d="M29 14h1" />
<path stroke="#2760e3" d="M0 15h1" />
<path stroke="#2a74e3" d="M1 15h1" />
<path stroke="#267ae3" d="M0 16h1" />
<path stroke="#2a67e4" d="M1 16h1" />
<path stroke="#246de6" d="M22 16h1" />
<path stroke="#2b22e2" d="M23 16h1" />
<path stroke="#3224e4" d="M24 16h1" />
<path stroke="#2429e5" d="M25 16h1" />
<path stroke="#2a66e1" d="M26 16h1" />
<path stroke="#2b74e2" d="M27 16h1" />
<path stroke="#e2c78c" d="M0 17h1M0 18h1M2 18h1M28 18h2M0 19h1M2 19h4M25 19h2M0 20h1M4 20h4M26 20h4M0 21h3M0 22h4M23 22h1M28 22h2M3 23h6M12 23h1M14 23h2M21 23h2M0 24h2M11 24h6M19 24h2M27 24h1M0 25h2M3 25h7M26 25h3M0 26h1M10 26h3M15 26h6M25 26h1M0 27h3M9 27h1M18 27h1M28 27h1M0 28h2M5 28h1M7 28h2M15 28h3M20 28h1M23 28h4M28 28h2M0 29h6M14 29h11M29 29h1" />
<path stroke="#f2d596" d="M1 18h1M1 19h1M27 19h3M1 20h3M24 20h2M3 21h5M24 21h6M4 22h4M24 22h4M0 23h3M13 23h1M23 23h7M2 24h7M21 24h6M28 24h2M2 25h1M10 25h16M29 25h1M1 26h9M13 26h2M21 26h4M26 26h4M3 27h6M10 27h8M19 27h9M29 27h1M2 28h3M6 28h1M9 28h6M18 28h2M21 28h2M27 28h1M6 29h8M25 29h4" />
<path stroke="#d7aeb2" d="M7 18h1M21 20h2M20 21h3" />
<path stroke="#d2a7ab" d="M22 18h1M22 19h2M23 20h1M23 21h1M19 22h4M19 23h2" />
</svg>