<svg viewBox="0 -0.5 30 30" shape-rendering="crispEdges">
<path stroke="#dfb058" d="M0 0h30M0 1h30M0 2h28M29 2h1M0 3h1M5 3h14M22 3h4M29 3h1M0 4h6M19 4h11M0 5h10M16 5h8M25 5h5M0 6h9M16 6h2M20 6h3M25 6h5M0 7h4M7 7h3M16 7h1M18 7h9M0 8h3M5 8h5M16 8h6M26 8h4M0 9h3M4 9h6M16 9h5M22 9h8M0 10h1M3 10h2M16 10h9M0 11h1M2 11h7M0 12h8M0 13h6M0 14h2" />
<path stroke="#c49140" d="M28 2h1M1 3h4M19 3h3M26 3h3M6 4h5M15 4h4M24 5h1M9 6h1M18 6h2M23 6h2M4 7h3M17 7h1M27 7h3M3 8h2M22 8h4M3 9h1M21 9h1M1 10h2M5 10h5M25 10h5M1 11h1M18 11h3M20 12h1M23 12h1M25 12h5M24 13h2M2 14h1M27 14h2M0 15h2M26 15h1M29 15h1M29 16h1M0 17h3M25 17h3M29 17h1M0 18h1M3 19h2M0 20h6M0 21h1" />
<path stroke="#57b2de" d="M11 4h1M13 4h1M11 5h1M13 5h1M15 5h1M11 6h1M13 6h1M15 6h1M11 7h1M13 7h1M15 7h1M11 8h1M13 8h1M15 8h1M11 9h1M13 9h1M15 9h1M11 10h1M13 10h1M15 10h1M11 11h1M13 11h4M9 12h1M11 12h6M8 13h1M11 13h7M8 14h3M12 14h2M15 14h5M8 15h3M12 15h2M15 15h3M10 16h7M10 17h5M16 17h1M12 18h2M19 21h2M17 22h3M11 23h1M16 23h2M10 24h2" />
<path stroke="#50a7d2" d="M12 4h1M14 4h1M10 5h1M12 5h1M14 5h1M10 6h1M12 6h1M14 6h1M10 7h1M12 7h1M14 7h1M10 8h1M12 8h1M14 8h1M10 9h1M12 9h1M14 9h1M10 10h1M12 10h1M14 10h1M10 11h1M12 11h1M17 11h1M10 12h1M18 12h1M19 13h1M18 15h1M17 16h1M15 17h1M15 18h2M12 19h4M20 22h2M18 23h4M16 24h2M20 24h1M10 25h1M16 25h1" />
<path stroke="#54acd7" d="M9 11h1M8 12h1M17 12h1M7 13h1M18 13h1M7 14h1M7 15h1M19 15h1M9 16h1M10 18h1M11 19h1M10 22h1M10 23h1" />
<path stroke="#ac6e3d" d="M21 11h9M19 12h1M21 12h2M24 12h1M6 13h1M20 13h4M26 13h4M3 14h4M20 14h7M29 14h1M2 15h5M20 15h6M27 15h2M0 16h6M21 16h1M25 16h4M3 17h2M28 17h1M1 18h4M25 18h5M0 19h3M5 19h1M24 19h5M6 20h1M24 20h6M1 21h7M22 21h6M0 22h10M22 22h4M0 23h10M22 23h5M0 24h10M12 24h4M19 24h1M0 25h10M12 25h4M25 25h1M5 26h2M12 26h1M14 26h2M24 26h1M26 26h4M6 27h1M8 27h8M22 27h2M1 28h1M4 28h2M12 28h1M15 28h4M20 28h3" />
<path stroke="#73c5ed" d="M9 13h2" />
<path stroke="#e0e6f3" d="M11 14h1M14 14h1M22 16h1M22 17h2M22 18h1M21 19h2M11 21h5M13 22h2" />
<path stroke="#101213" d="M11 15h1M14 15h1" />
<path stroke="#d59754" d="M6 16h1M20 16h1M5 17h1M21 17h1M5 18h1M21 18h1" />
<path stroke="#efaa5f" d="M7 16h2M18 16h2M6 17h2M9 17h1M17 17h1M19 17h2M7 18h3M17 18h4M8 19h3M16 19h4M8 20h3M16 20h2M10 21h1" />
<path stroke="#dbe0ea" d="M23 16h2M24 17h1M23 18h2" />
<path stroke="#de9f5b" d="M8 17h1M18 17h1M6 18h1M6 19h2M20 19h1M7 20h1M18 20h3M8 21h2M16 21h3" />
<path stroke="#4896bd" d="M11 18h1M14 18h1" />
<path stroke="#d0d1d4" d="M23 19h1M21 20h3M21 21h1M12 22h1M15 22h1M12 23h4" />
<path stroke="#935337" d="M29 19h1M28 21h2M26 22h4M27 23h3M18 24h1M22 24h8M18 25h7M26 25h4M0 26h5M7 26h5M13 26h1M16 26h8M25 26h1M0 27h6M7 27h1M16 27h6M24 27h6M0 28h1M2 28h2M6 28h6M13 28h2M19 28h1M23 28h7M0 29h30" />
<path stroke="#bdc3ce" d="M11 20h3M11 22h1" />
<path stroke="#b6bbc4" d="M14 20h2M16 22h1" />
<path stroke="#3b5f71" d="M21 24h1M11 25h1M17 25h1" />
</svg>