<svg viewBox="0 -0.5 16 16" shape-rendering="crispEdges">
<path stroke="#202020" d="M0 0h16M0 1h16M0 2h5M11 2h5M0 3h3M6 3h3M12 3h4M0 4h3M5 4h6M13 4h3M0 5h3M4 5h3M9 5h2M13 5h3M0 6h3M4 6h3M9 6h2M13 6h3M0 7h3M4 7h3M9 7h1M13 7h3M0 8h3M5 8h3M12 8h4M0 9h3M5 9h11M0 10h4M6 10h10M0 11h4M7 11h9M0 12h5M8 12h8M0 13h6M11 13h5M0 14h16M0 15h16" />
<path stroke="#c4184e" d="M5 2h1M10 2h1M4 3h2M10 3h2M11 4h1M11 5h1M3 6h1M11 6h1M3 7h1M8 7h1M3 8h1M8 8h1M5 11h1M6 12h1" />
<path stroke="#a80036" d="M6 2h2M9 2h1M3 5h1M12 5h1M7 6h1M12 6h1M7 7h1M11 7h1M9 8h2M4 10h1M7 13h1" />
<path stroke="#5f2437" d="M8 2h1M9 3h1M11 8h1M3 9h2M7 12h1" />
<path stroke="#241a1d" d="M3 3h1M12 4h1M7 5h1M8 6h1M6 11h1" />
<path stroke="#c70036" d="M3 4h1M8 5h1M10 7h1M4 11h1M8 13h2" />
<path stroke="#3e1924" d="M4 4h1M12 7h1M4 8h1M5 10h1M6 13h1M10 13h1" />
<path stroke="#82203f" d="M5 12h1" />
</svg>