<svg viewBox="0 -0.5 16 16" shape-rendering="crispEdges">
<path stroke="#202020" d="M0 0h16M0 1h16M0 2h7M9 2h7M0 3h6M10 3h6M0 4h6M10 4h6M0 5h5M11 5h5M0 6h5M11 6h5M0 7h4M12 7h4M0 8h3M13 8h3M0 9h3M7 9h2M13 9h3M0 10h3M7 10h2M13 10h3M0 11h2M7 11h2M13 11h3M0 12h2M6 12h4M14 12h2M0 13h2M5 13h6M14 13h2M0 14h16M0 15h16" />
<path stroke="#3666db" d="M7 2h1M7 5h2M6 6h1M9 6h1M6 8h3M10 9h1M4 10h1M5 11h1M5 12h1M10 12h1M12 13h1" />
<path stroke="#2d51ac" d="M8 2h1M7 3h2M7 4h3M9 5h1M10 7h1M11 11h1M12 12h1" />
<path stroke="#233f83" d="M6 3h1M9 3h1M10 5h1M4 8h2M3 10h1M6 10h1M9 10h1M12 10h1M4 13h1M11 13h1" />
<path stroke="#1d1c20" d="M6 4h1M4 7h1M3 8h1M2 12h1M2 13h1M13 13h1" />
<path stroke="#23418d" d="M5 5h1" />
<path stroke="#2a4b9f" d="M6 5h1M5 6h1M10 6h1M5 7h1M11 8h1M4 9h1M11 9h1M11 10h1M3 11h1M12 11h1M3 12h1" />
<path stroke="#3a6ae2" d="M7 6h2M6 7h4M9 8h2M5 9h2M9 9h1M5 10h1M10 10h1M4 11h1M10 11h1M4 12h1M11 12h1M3 13h1" />
<path stroke="#1c1c25" d="M11 7h1M12 8h1M3 9h1M12 9h1M2 11h1M6 11h1M9 11h1M13 12h1" />
</svg>