<svg viewBox="0 -0.5 24 29" shape-rendering="crispEdges">
<path stroke="#000000" d="M9 0h2M14 0h1M15 1h1M15 2h1M10 3h1M12 3h2M16 3h1M11 4h1M8 5h1M11 5h2M16 5h1M8 6h1M12 6h1M16 6h1M8 7h1M13 7h2M15 8h1M7 9h1M15 9h1M18 9h1M7 10h1M18 10h1M6 11h1M5 12h1M18 12h2M4 13h1M18 13h2M4 14h1M18 14h1M18 15h1M20 15h1M4 16h1M4 17h1M18 17h1M20 17h1M3 18h1M3 19h1M20 19h2M2 20h1M4 20h1M20 20h3M2 21h1M4 21h1M20 21h1M22 21h1M5 22h1M20 22h1M22 22h1M21 23h2M5 24h1M16 24h1M22 24h1M6 25h2M15 25h1M7 26h1M9 26h1M14 26h1M7 27h1M12 27h5" />
<path stroke="#0d0d0d" d="M11 0h1M11 3h1M12 4h1M15 4h1M11 6h1M18 16h2M10 26h1" />
<path stroke="#0a0a0a" d="M12 0h2M9 1h2M12 1h3M9 2h2M12 2h3M8 3h2M14 3h2M8 4h1M16 4h1M15 5h1M15 6h1M15 7h2M14 8h1M16 8h2M16 9h2M16 10h2M7 11h1M17 11h1M17 12h1M5 13h2M17 13h1M5 14h1M19 14h1M19 15h1M19 17h1M4 18h1M19 18h2M4 19h1M19 19h1M3 20h1M19 20h1M3 21h1M19 21h1M21 21h1M4 22h1M21 22h1M4 23h3M6 24h1M16 25h1M8 26h1M11 26h1M15 26h2M8 27h2M11 27h1" />
<path stroke="#191717" d="M15 0h1M8 1h1M16 1h1M8 2h1M16 2h1" />
<path stroke="#0b0b0b" d="M11 1h1M11 2h1" />
<path stroke="#ffffff" d="M9 4h2M14 4h1M10 5h1M11 10h1M10 11h5M9 12h8M7 13h10M9 14h8M8 15h9M6 16h12M6 17h12M5 18h14M5 19h14M5 20h14M5 21h14M6 22h12M7 23h10M7 24h9M8 25h7" />
<path stroke="#cfc3c3" d="M13 4h1" />
<path stroke="#2a2929" d="M9 5h1M13 5h1" />
<path stroke="#efe5e5" d="M14 5h1M10 6h1M13 6h1" />
<path stroke="#cdbfbf" d="M9 6h1M14 6h1" />
<path stroke="#d7d700" d="M9 7h2M12 7h1M8 8h1M13 8h1M0 24h2M23 24h1M0 25h1M5 25h1M17 25h1M22 25h2M0 26h2M6 26h1M17 26h1M23 26h1M3 27h4M17 27h1M19 27h1M22 27h1" />
<path stroke="#d7bf19" d="M11 7h1M11 9h1M1 22h1M0 23h1" />
<path stroke="#d7be00" d="M9 8h2M12 8h1M8 9h3M12 9h1M2 23h1M19 23h2M2 24h2M17 24h4M1 25h4M18 25h4M2 26h4M18 26h5M1 27h2M18 27h1M20 27h2M3 28h3M17 28h5" />
<path stroke="#d7be04" d="M11 8h1M23 23h1" />
<path stroke="#ddd7d7" d="M13 9h2M12 10h1" />
<path stroke="#131212" d="M8 10h1M6 12h2M5 15h1M21 24h1" />
<path stroke="#d8c14a" d="M9 10h2" />
<path stroke="#f1ecec" d="M13 10h3M8 11h2M15 11h2M8 12h1M6 14h3M17 14h1M6 15h2" />
<path stroke="#191919" d="M18 11h1M20 13h1M21 17h1M21 18h1" />
<path stroke="#040404" d="M20 14h1" />
<path stroke="#060505" d="M4 15h1" />
<path stroke="#dfdada" d="M17 15h1" />
<path stroke="#181717" d="M3 16h1M5 16h1M3 17h1M5 17h1M2 19h1" />
<path stroke="#100f0f" d="M20 16h1M10 27h1" />
<path stroke="#cdb500" d="M2 22h2M19 22h1M18 23h1" />
<path stroke="#e2dede" d="M18 22h1M17 23h1" />
<path stroke="#d7c100" d="M1 23h1" />
<path stroke="#c7c700" d="M3 23h1" />
<path stroke="#b8b800" d="M4 24h1" />
<path stroke="#0f0e0e" d="M12 26h2" />
</svg>